<svg width="24" height="24" viewBox="0 0 24 24" fill="none" xmlns="http://www.w3.org/2000/svg">
<path fill-rule="evenodd" clip-rule="evenodd" d="M12 3C16.9706 3 21 7.054 21 12.0549C21 16.5744 17.7088 20.3204 13.4062 20.9997V14.6723H15.5033L15.9023 12.0549H15.8593L15.8635 12.027H13.4062V10.3563C13.4062 9.64024 13.7549 8.94225 14.8729 8.94225H16.0078V6.71391C16.0078 6.71391 15.9944 6.71161 15.9692 6.70752V6.6658C15.9692 6.6658 14.9372 6.48828 13.9506 6.48828C11.8908 6.48828 10.5445 7.74657 10.5445 10.0245V12.027H8.25488V14.6544H8.30859V14.6723H10.5445V20.9918C6.26609 20.2918 3 16.5572 3 12.0549C3 7.054 7.02943 3 12 3Z" fill="white" fill-opacity="0.55"/>
</svg>
