<svg width="24" height="24" viewBox="0 0 24 24" fill="none" xmlns="http://www.w3.org/2000/svg">
<path fill-rule="evenodd" clip-rule="evenodd" d="M20.9993 11.5452C20.9992 11.6966 20.999 11.8481 20.999 11.9998C20.999 12.1695 20.9992 12.3389 20.9995 12.5082C21.0011 13.579 21.0027 14.6435 20.9405 15.7148C20.8707 17.1557 20.5442 18.4323 19.4883 19.4882C18.4346 20.5419 17.1557 20.8707 15.7148 20.9405C14.6256 21.0017 13.5434 21.0005 12.4544 20.9993C12.303 20.9992 12.1515 20.999 11.9998 20.999C11.8485 20.999 11.6972 20.9992 11.5461 20.9993C10.4586 21.0005 9.37607 21.0017 8.28489 20.9405C6.84394 20.8707 5.56736 20.5442 4.51141 19.4882C3.45772 18.4346 3.129 17.1557 3.05921 15.7148C2.99793 14.6256 2.99913 13.5416 3.00033 12.4536C3.0005 12.3025 3.00067 12.1512 3.00067 11.9998C3.00067 11.8484 3.0005 11.6972 3.00033 11.546C2.99913 10.4585 2.99793 9.37605 3.05921 8.28489C3.129 6.84394 3.45547 5.56736 4.51141 4.51141C5.5651 3.45772 6.84394 3.129 8.28489 3.05921C9.37404 2.99793 10.4562 2.99913 11.5452 3.00033C11.6966 3.0005 11.8481 3.00067 11.9998 3.00067C12.1512 3.00067 12.3025 3.0005 12.4536 3.00033C13.5411 2.99913 14.6236 2.99793 15.7148 3.05921C17.1557 3.129 18.4323 3.45547 19.4883 4.51141C20.5419 5.5651 20.8707 6.84394 20.9405 8.28489C21.0017 9.37404 21.0005 10.4562 20.9993 11.5452ZM7.3798 11.9998C7.3798 14.5553 9.44215 16.6176 11.9976 16.6176C14.553 16.6176 16.6154 14.5553 16.6154 11.9998C16.6154 9.4444 14.553 7.38205 11.9976 7.38205C9.44215 7.38205 7.3798 9.4444 7.3798 11.9998ZM15.726 7.19292C15.726 7.78957 16.2078 8.27138 16.8045 8.27138C17.4011 8.27138 17.8807 7.79182 17.8829 7.19292C17.8829 6.59628 17.4011 6.11446 16.8045 6.11446C16.2078 6.11446 15.726 6.59628 15.726 7.19292ZM8.99715 12C8.99715 10.3474 10.3458 8.99881 11.9984 8.99881C13.651 8.99881 14.9996 10.3474 14.9996 12C14.9996 13.6526 13.651 15.0013 11.9984 15.0013C10.3458 15.0013 8.99715 13.6526 8.99715 12Z" fill="white" fill-opacity="0.55"/>
</svg>
